<svg width="104" height="104" viewBox="0 0 104 104" fill="none" xmlns="http://www.w3.org/2000/svg">
<path d="M51.76 4C25.3829 4 4 25.3829 4 51.76C4 78.1369 25.3829 99.52 51.76 99.52C78.1369 99.52 99.52 78.1369 99.52 51.76C99.52 25.3829 78.1369 4 51.76 4Z" stroke="black" stroke-width="7.164" stroke-linecap="round" stroke-linejoin="round"/>
<path d="M14.8463 82.0671C14.8463 82.0671 25.4921 68.476 51.76 68.476C78.028 68.476 88.6741 82.0671 88.6741 82.0671" stroke="black" stroke-width="7.164" stroke-linecap="round" stroke-linejoin="round"/>
<path d="M51.76 51.76C59.6734 51.76 66.088 45.3454 66.088 37.432C66.088 29.5189 59.6734 23.104 51.76 23.104C43.8467 23.104 37.432 29.5189 37.432 37.432C37.432 45.3454 43.8467 51.76 51.76 51.76Z" stroke="black" stroke-width="7.164" stroke-linecap="round" stroke-linejoin="round"/>
</svg>
